<?xml version="1.0" encoding="UTF-8" standalone="no"?>
<!-- Created with Inkscape (http://www.inkscape.org/) -->

<svg
   xmlns:dc="http://purl.org/dc/elements/1.1/"
   xmlns:cc="http://creativecommons.org/ns#"
   xmlns:rdf="http://www.w3.org/1999/02/22-rdf-syntax-ns#"
   xmlns:svg="http://www.w3.org/2000/svg"
   xmlns="http://www.w3.org/2000/svg"
   xmlns:sodipodi="http://sodipodi.sourceforge.net/DTD/sodipodi-0.dtd"
   xmlns:inkscape="http://www.inkscape.org/namespaces/inkscape"
   id="svg20933"
   version="1.1"
   inkscape:version="0.91 r13725"
   width="350.767"
   height="171.375"
   xml:space="preserve"
   sodipodi:docname="array-mixer-logo.svg"
   inkscape:export-filename="/Users/su_huynh/Documents/Art/Khủng Long Bé/pteranodon_02.png"
   inkscape:export-xdpi="179.92554"
   inkscape:export-ydpi="179.92554"><metadata
     id="metadata20939"><rdf:RDF><cc:Work
         rdf:about=""><dc:format>image/svg+xml</dc:format><dc:type
           rdf:resource="http://purl.org/dc/dcmitype/StillImage" /><dc:title></dc:title></cc:Work></rdf:RDF></metadata><defs
     id="defs20937"><clipPath
       clipPathUnits="userSpaceOnUse"
       id="clipPath20947"><path
         d="M 0,414 558,414 558,0 0,0 0,414 Z"
         id="path20949"
         inkscape:connector-curvature="0" /></clipPath><clipPath
       clipPathUnits="userSpaceOnUse"
       id="clipPath20947-1"><path
         inkscape:connector-curvature="0"
         d="M 0,414 558,414 558,0 0,0 0,414 Z"
         id="path20949-5" /></clipPath></defs><sodipodi:namedview
     pagecolor="#ffffff"
     bordercolor="#666666"
     borderopacity="1"
     objecttolerance="10"
     gridtolerance="10"
     guidetolerance="10"
     inkscape:pageopacity="0"
     inkscape:pageshadow="2"
     inkscape:window-width="1366"
     inkscape:window-height="692"
     id="namedview20935"
     showgrid="false"
     inkscape:zoom="1.0574209"
     inkscape:cx="365.8733"
     inkscape:cy="9.4177316"
     inkscape:window-x="0"
     inkscape:window-y="24"
     inkscape:window-maximized="1"
     inkscape:current-layer="g20941"
     showguides="true"
     inkscape:guide-bbox="true"
     inkscape:showpageshadow="false"
     fit-margin-top="30"
     fit-margin-left="30"
     fit-margin-right="30"
     fit-margin-bottom="30" /><g
     id="g20941"
     inkscape:groupmode="layer"
     inkscape:label="pteranodon_02"
     transform="matrix(1.25,0,0,-1.25,-126.83144,367.59178)"><g
       id="g4993"
       transform="translate(1.0514488,-1.4707031e-5)"><path
         inkscape:connector-curvature="0"
         id="path4810"
         d="m 222.63155,221.93482 -1.37755,-1.60176 -1.37868,-1.60287 0,-17.14529 0,-17.14529 1.6698,-1.66869 1.66869,-1.6698 17.50669,0 17.50669,0 1.66868,1.6698 1.6698,1.66869 0,17.36391 0,17.3628 -1.47349,1.38425 -1.47348,1.38425 -17.99413,0 -17.99302,0 z m 3.52588,-5.99656 14.56307,0 14.56307,0 0,-14.56306 0,-14.56307 -14.18271,0 c -7.80028,0 -14.35367,0.17207 -14.56307,0.38147 -0.2094,0.2094 -0.38036,6.76278 -0.38036,14.56307 l 0,14.18159 z m 8.55313,-4.39368 c -0.94427,0.004 -1.82485,-0.0182 -2.4138,-0.0669 -2.02533,-0.16763 -2.14162,-0.28392 -2.14162,-2.14163 0,-1.70019 0.18718,-1.96428 1.38982,-1.96428 1.24862,0 4.11261,-2.80511 5.70878,-5.59165 0.5747,-1.0033 -4.56274,-6.97256 -6.00103,-6.97256 -0.87416,0 -1.09757,-0.40753 -1.09757,-1.99886 l 0,-1.99885 4.35799,0 4.35687,0 -0.28667,2.54765 c -0.23032,2.04343 -0.0651,2.74781 0.83658,3.5638 1.08449,0.98144 1.16403,0.96792 2.27771,-0.4049 1.0097,-1.24465 1.03957,-1.44581 0.23201,-1.60734 -0.6346,-0.12693 -0.92358,-0.79633 -0.92358,-2.14162 l 0,-1.95759 5.13991,0 5.1399,0 0,1.99885 c 0,1.33723 -0.26559,1.99886 -0.80311,1.99886 -0.67915,0 -2.87928,2.35498 -5.92517,6.34346 -1.05405,1.38022 2.95648,6.21567 5.15775,6.21852 1.41374,0.002 1.57053,0.20179 1.57053,2.00108 l 0,1.99886 -4.59558,0 -4.59446,0 0.12717,-2.46064 c 0.1553,-3.00021 -0.39949,-4.16586 -1.53484,-3.2236 -0.55451,0.4602 -0.68792,1.38076 -0.45063,3.11206 l 0.33686,2.45841 -3.06744,0.19966 c -0.84373,0.0549 -1.85213,0.0852 -2.79638,0.0892 z"
         style="fill:#000000" /><g
         style="fill:#e67e22;fill-opacity:1"
         transform="matrix(0.71387586,0,0,0.71387586,366.97269,45.760846)"
         id="g4884"><path
           inkscape:connector-curvature="0"
           style="fill:#e67e22;fill-opacity:1"
           d="m -85.576172,127.47852 -1.912109,2.35937 c -1.789775,2.2102 -1.91211,4.32627 -1.91211,33.16211 l 0,30.80078 3.076172,2.58789 3.078125,2.58985 29.699219,0 c 26.258,0 29.987928,-0.19745 32.173828,-1.69336 1.359875,-0.93063 2.802944,-2.16813 3.207031,-2.75 0.404075,-0.58189 0.7425,-15.0501 0.75,-32.15235 0.01494,-30.35177 -0.03516,-31.14055 -2.089843,-33 -1.977625,-1.78974 -4.039579,-1.90429 -34.087891,-1.90429 l -31.982422,0 z m 7.175781,10.5 25.5,0 25.5,0 0,25 0,25 -25.5,0 -25.5,0 0,-25 0,-25 z"
           transform="matrix(0.8,0,0,-0.8,0,416)"
           id="path4840" /><path
           style="fill:#e67e22;fill-opacity:1"
           d="m -47.72025,271.07072 c -1.82898,0.21045 -2.2,0.63955 -2.2,2.54436 0,1.767 0.41183,2.34972 1.8,2.54687 1.52301,0.2163 1.83293,0.80961 2.01402,3.85564 0.19286,3.24384 -0.19292,4.13893 -3.89928,9.04749 -2.5799,3.41671 -4.52365,5.29004 -5.21402,5.02511 -0.81251,-0.31179 -1.10122,0.35657 -1.1026,2.5525 l -0.002,2.9749 6.482,-0.26343 6.482,-0.26343 -0.36701,-2.93657 c -0.31796,-2.54191 1.12422,-7.33657 2.20649,-7.33657 0.1974,0 0.95574,1.15413 1.6852,2.56475 0.91459,1.76864 1.04513,2.65847 0.42054,2.86667 -1.117,0.37233 -1.21324,4.94661 -0.10574,5.02572 0.44,0.0314 2.42,0.0571 4.4,0.0571 6.92752,0 6.8,0.0436 6.8,-2.32458 0,-1.49542 -0.56352,-2.46571 -1.74233,-3 -0.95828,-0.43434 -3.10917,-2.76971 -4.77975,-5.18971 -2.55915,-3.70716 -3.04061,-5.06133 -3.05768,-8.6 -0.0154,-3.209 0.2629,-4.2 1.17976,-4.2 0.79219,0 1.2,-0.79241 1.2,-2.33173 0,-2.29832 -0.0717,-2.33559 -5,-2.6 -2.75,-0.14755 -5.99,-0.15435 -7.2,-0.0151 z"
           id="path4836"
           inkscape:connector-curvature="0" /></g><g
         style="fill:#3498db;fill-opacity:1"
         transform="matrix(0.71387586,0,0,0.71387586,301.97834,169.83247)"
         id="g4857"><path
           inkscape:connector-curvature="0"
           style="fill:#3498db;fill-opacity:1"
           d="m -222.49219,344.97852 -2.45312,2.45312 -2.45508,2.45508 0,30.41016 c 0,29.25138 0.0787,30.51245 2.07227,33.04687 l 2.07226,2.63477 31.97656,0 31.97461,0 2.45117,-2.64649 2.45313,-2.64648 0,-29.30664 c 0,-31.03002 -0.30119,-33.30583 -4.6582,-35.29102 -1.6157,-0.73616 -12.71179,-1.10937 -32.9336,-1.10937 l -30.5,0 z m 6.0918,11 25.5,0 25.5,0 0,25 0,25 -25.5,0 -25.5,0 0,-25 0,-25 z"
           transform="matrix(0.8,0,0,-0.8,0,416)"
           id="path4774" /><path
           inkscape:connector-curvature="0"
           style="fill:#3498db;fill-opacity:1"
           d="m -208.40039,362.82227 0,3.57812 c 0,2.91081 0.3727,3.57813 2,3.57813 1.87875,0 2,0.66667 2,11 0,10.33333 -0.12121,11 -2,11 -1.61905,0 -2,0.66667 -2,3.5 l 0,3.5 9,0 9,0 0,-3.09375 c 0,-2.25262 -0.5437,-3.23635 -2,-3.61719 -1.61629,-0.42266 -2,-1.36389 -2,-4.90625 0,-6.68101 2.24295,-5.54178 7.12305,3.61719 l 4.26172,8 5.30859,0 5.30664,0 0,-3.5 c 0,-2.95483 -0.35048,-3.5041 -2.25,-3.52735 -1.66076,-0.0203 -2.86329,-1.24052 -4.58984,-4.66015 -2.08298,-4.12562 -2.16513,-4.73149 -0.75,-5.52344 2.145,-1.2004 4.58984,-6.11339 4.58984,-9.22461 0,-1.39364 -1.3125,-4.00267 -2.91602,-5.79883 l -2.91406,-3.26562 -13.58594,-0.32813 -13.58398,-0.32812 z m 15.57031,7.23437 c 0.50956,-0.018 1.18483,0.0353 2.07813,0.11133 4.3246,0.36785 6.40955,2.83155 4.42187,5.22656 -0.72455,0.87303 -2.8316,1.58399 -4.69336,1.58399 -3.2043,0 -3.37695,-0.18281 -3.37695,-3.56055 0,-2.61501 0.0416,-3.3072 1.57031,-3.36133 z"
           transform="matrix(0.8,0,0,-0.8,0,416)"
           id="path4770" /></g><path
         inkscape:connector-curvature="0"
         id="path4736-3"
         d="m 193.17931,221.78289 c -9.63306,0.01 -17.93073,-0.14174 -18.4392,-0.33686 -2.35282,-0.90286 -2.5956,-2.80863 -2.5956,-20.38451 0,-16.13014 0.0469,-16.85935 1.18347,-18.30421 l 1.18347,-1.50473 18.25961,0 18.26072,0 1.40097,1.40211 1.40211,1.4021 0,16.91104 c 0,17.20981 -0.14335,18.49502 -2.23533,20.10118 -0.66569,0.51111 -5.55312,0.70054 -18.42022,0.71388 z m -14.7527,-6.26427 14.56307,0 14.56307,0 0,-14.27751 0,-14.27752 -14.56307,0 -14.56307,0 0,14.27752 0,14.27751 z m 8.56651,-3.9977 0,-1.99885 c 0,-1.75137 0.17677,-1.99886 1.42775,-1.99886 l 1.42776,0 0,-6.2821 0,-6.28211 -1.42776,0 c -1.25098,0 -1.42775,-0.24746 -1.42775,-1.99885 l 0,-1.99886 5.42546,0 5.42546,0 0,1.99886 c 0,1.61812 -0.21756,1.99885 -1.14221,1.99885 -1.07295,0 -1.1422,0.38075 -1.1422,6.28211 0,5.90138 0.0693,6.2821 1.1422,6.2821 0.92465,0 1.14221,0.38076 1.14221,1.99886 l 0,1.99885 -5.42546,0 -5.42546,0 z"
         style="fill:#8e44ad;fill-opacity:1" /><path
         inkscape:connector-curvature="0"
         id="path4724-6"
         d="m 163.09351,221.79201 -17.76882,-0.0178 c -19.13356,-0.0195 -19.16057,-0.0238 -20.31646,-3.0641 -0.35936,-0.94522 -0.59453,-7.8705 -0.59453,-17.55241 0,-15.73353 0.13757,-17.0871 1.93416,-19.14192 0.49016,-0.56059 4.81446,-0.73398 18.79502,-0.75068 l 18.1581,-0.0212 1.4021,1.40209 1.40097,1.40098 0,17.36726 0,17.36615 -1.50471,1.50583 -1.50583,1.50583 z m -32.3977,-6.28211 14.56307,0 14.56306,0 0,-14.27751 0,-14.27752 -14.56306,0 -14.56307,0 0,14.27752 0,14.27751 z m 1.71442,-3.95198 0,-2.00331 c 0,-1.54671 0.19548,-1.92909 0.85665,-1.67538 0.73114,0.28057 0.85665,-0.64234 0.85665,-6.29995 0,-5.51149 -0.14438,-6.629 -0.85665,-6.629 -1.23513,0 -1.15936,-3.28287 0.0814,-3.527 0.51616,-0.10124 2.14417,-0.0986 3.61734,0.006 2.53416,0.18115 2.67815,0.28117 2.67815,1.85607 0,1.23343 -0.27158,1.66535 -1.04739,1.66535 -0.95278,0 -1.04628,0.5736 -1.04628,6.37691 0,3.5075 0.13448,6.24132 0.30005,6.07576 0.16559,-0.16559 1.40742,-3.61323 2.75959,-7.6619 2.23987,-6.70665 2.58912,-7.37668 3.92073,-7.53585 1.32833,-0.15879 1.59261,0.17966 2.90235,3.71215 0.79264,2.13777 1.76039,4.91526 2.15056,6.17168 1.93404,6.22802 2.19809,6.14339 2.22193,-0.71387 0.0209,-6.00776 -0.051,-6.42488 -1.09758,-6.42488 -0.88931,0 -1.0946,-0.35174 -0.99942,-1.71219 l 0.12046,-1.71219 4.14048,-0.002 4.14048,-10e-4 0,1.7133 c 0,0.94232 -0.257,1.7133 -0.5711,1.7133 -0.34763,0 -0.57111,2.56996 -0.57111,6.56766 0,4.94955 0.1759,6.53249 0.71388,6.42488 0.42883,-0.0858 0.78606,0.607 0.89458,1.73561 l 0.17958,1.8795 -4.97147,-0.1662 -4.9726,-0.16508 -1.49021,-4.70935 c -0.81982,-2.59034 -1.65023,-4.71015 -1.84492,-4.71158 -0.1947,-7.2e-4 -1.12244,2.11798 -2.06243,4.70935 l -1.70996,4.71158 -4.64688,0.16619 -4.64689,0.16509 z"
         style="fill:#34495e;fill-opacity:1" /><g
         style="fill:#e74c3c;fill-opacity:1"
         transform="matrix(0.71387586,0,0,0.71387586,257.7088,51.329078)"
         id="g4851"><path
           inkscape:connector-curvature="0"
           style="fill:#e74c3c;fill-opacity:1"
           d="m -196.52148,136.97852 c -30.5467,0 -32.78165,0.24437 -35.59766,3.9121 -0.89503,1.16574 -1.22663,9.73208 -1.25,32.29102 l -0.0312,30.70508 2.54492,2.54492 2.54688,2.54688 30.89843,0 30.89844,0 2.80469,-2.41407 2.80664,-2.41406 0,-31.17187 0,-31.17383 -2.80664,-2.41407 -2.80469,-2.4121 -30.00976,0 z m -25.87891,11 25.51758,0 25.51758,0 -0.26758,25.25 -0.26758,25.25 -24.76563,0.0664 c -13.62127,0.0371 -24.98377,-0.14979 -25.25,-0.41601 -0.26622,-0.26623 -0.48437,-11.66004 -0.48437,-25.31836 l 0,-24.83203 z"
           transform="matrix(0.8,0,0,-0.8,0,416)"
           id="path4716" /><path
           inkscape:connector-curvature="0"
           style="fill:#e74c3c;fill-opacity:1"
           d="m -208.40039,154.97852 0,3.5 c 0,2.74317 0.40233,3.5 1.85742,3.5 1.72723,0 1.63532,0.74877 -1.31445,10.75 -2.68336,9.09795 -3.50744,10.79792 -5.35742,11.06836 -1.76099,0.25743 -2.18555,0.98641 -2.18555,3.75 l 0,3.43164 7.5,0 7.5,0 0,-3.5 c 0,-2.54802 -0.43753,-3.5 -1.60742,-3.5 -1.0545,0 -1.39831,-0.54405 -1,-1.58204 0.33384,-0.86998 0.60742,-1.99498 0.60742,-2.5 0,-0.50501 2.025,-0.91796 4.5,-0.91796 2.475,0 4.5,0.41295 4.5,0.91796 0,0.50502 0.27358,1.63002 0.60742,2.5 0.39831,1.03799 0.0545,1.58204 -1,1.58204 -1.16989,0 -1.60742,0.95198 -1.60742,3.5 l 0,3.5 7.38672,0 7.38672,0 0.45898,-3.13477 c 0.33939,-2.31232 0.0353,-3.24496 -1.16406,-3.55859 -1.06854,-0.27944 -2.73023,-3.94601 -4.84766,-10.70118 -3.72555,-11.8856 -3.68388,-11.60546 -1.7207,-11.60546 1.04762,0 1.5,-1.05555 1.5,-3.5 l 0,-3.5 -11,0 -11,0 z m 10.44727,9.87304 1.20117,3.3125 c 0.6602,1.82245 1.23351,3.65196 1.27539,4.06446 0.0418,0.4125 -0.98656,0.75 -2.28516,0.75 -2.27201,0 -2.3191,-0.15418 -1.27539,-4.06446 l 1.08399,-4.0625 z"
           transform="matrix(0.8,0,0,-0.8,0,416)"
           id="path4712" /></g><path
         inkscape:connector-curvature="0"
         id="path4684-3"
         d="m 293.83436,222.06141 c -2.10297,-0.004 -4.37616,-0.017 -6.71935,-0.0401 l -17.04156,-0.16844 -1.09088,-1.34744 c -1.0211,-1.2618 -1.0909,-2.47461 -1.0909,-18.90655 l 0,-17.55689 1.42217,-1.53484 1.42218,-1.53371 18.04656,0.16621 18.04656,0.16507 1.09088,1.34856 c 1.02146,1.26216 1.0909,2.4747 1.0909,18.9891 0,16.80363 -0.0535,17.69409 -1.1277,18.76824 -0.62023,0.62023 -1.71246,1.27432 -2.42718,1.45341 -0.53605,0.13431 -5.31276,0.20817 -11.62168,0.19743 z m -19.66058,-6.20515 14.56307,0 14.56306,0 0,-14.53072 0,-14.5296 -14.20947,-0.006 c -7.81545,-0.003 -14.36883,0.15377 -14.56307,0.34802 -0.19426,0.19426 -0.35359,6.73602 -0.35359,14.53629 l 0,14.18159 z m 22.76929,-4.15163 c -0.0769,-0.009 -0.16229,-0.0337 -0.25767,-0.0702 -0.49684,-0.19066 -4.43781,-0.34692 -8.75725,-0.34692 l -7.85263,0 0,-1.7133 c 0,-1.28064 0.26366,-1.7133 1.04628,-1.7133 0.95115,0 1.04739,-0.56876 1.04739,-6.21518 0,-5.6748 -0.0966,-6.24133 -1.10986,-6.5063 -0.9754,-0.25507 -1.21344,-1.626 -0.64249,-3.69767 0.0216,-0.0785 3.89398,-0.14277 8.60556,-0.14277 l 8.56651,0 0,2.8555 c 0,1.57053 0.0642,3.04825 0.14277,3.28383 0.0785,0.23558 -0.82096,0.48244 -1.99885,0.54769 -1.92607,0.10675 -2.14163,-0.0226 -2.14163,-1.28498 0,-1.3207 -0.18569,-1.40434 -3.14105,-1.40434 l -3.14106,0 0,2.28441 0,2.2844 2.56996,0 c 2.55639,0 2.56995,0.0106 2.56995,1.99885 0,1.98829 -0.0136,1.99885 -2.56995,1.99885 -2.55639,0 -2.56996,0.0106 -2.56996,1.99886 l 0,1.99885 3.16559,0 c 2.20158,0 3.1386,-0.21748 3.07413,-0.71388 -0.22887,-1.76247 0.1323,-2.14162 2.04124,-2.14162 l 1.99886,0 0,3.48796 c 0,2.57749 -0.10783,3.27375 -0.64584,3.21132 z"
         style="fill:#27ae60;fill-opacity:1" /><g
         style="fill:#3498db;fill-opacity:1"
         id="g4861"
         transform="matrix(0.71387586,0,0,0.71387586,349.81723,169.83247)"><path
           id="path4863"
           transform="matrix(0.8,0,0,-0.8,0,416)"
           d="m -222.49219,344.97852 -2.45312,2.45312 -2.45508,2.45508 0,30.41016 c 0,29.25138 0.0787,30.51245 2.07227,33.04687 l 2.07226,2.63477 31.97656,0 31.97461,0 2.45117,-2.64649 2.45313,-2.64648 0,-29.30664 c 0,-31.03002 -0.30119,-33.30583 -4.6582,-35.29102 -1.6157,-0.73616 -12.71179,-1.10937 -32.9336,-1.10937 l -30.5,0 z m 6.0918,11 25.5,0 25.5,0 0,25 0,25 -25.5,0 -25.5,0 0,-25 0,-25 z"
           style="fill:#3498db;fill-opacity:1"
           inkscape:connector-curvature="0" /><path
           id="path4865"
           transform="matrix(0.8,0,0,-0.8,0,416)"
           d="m -208.40039,362.82227 0,3.57812 c 0,2.91081 0.3727,3.57813 2,3.57813 1.87875,0 2,0.66667 2,11 0,10.33333 -0.12121,11 -2,11 -1.61905,0 -2,0.66667 -2,3.5 l 0,3.5 9,0 9,0 0,-3.09375 c 0,-2.25262 -0.5437,-3.23635 -2,-3.61719 -1.61629,-0.42266 -2,-1.36389 -2,-4.90625 0,-6.68101 2.24295,-5.54178 7.12305,3.61719 l 4.26172,8 5.30859,0 5.30664,0 0,-3.5 c 0,-2.95483 -0.35048,-3.5041 -2.25,-3.52735 -1.66076,-0.0203 -2.86329,-1.24052 -4.58984,-4.66015 -2.08298,-4.12562 -2.16513,-4.73149 -0.75,-5.52344 2.145,-1.2004 4.58984,-6.11339 4.58984,-9.22461 0,-1.39364 -1.3125,-4.00267 -2.91602,-5.79883 l -2.91406,-3.26562 -13.58594,-0.32813 -13.58398,-0.32812 z m 15.57031,7.23437 c 0.50956,-0.018 1.18483,0.0353 2.07813,0.11133 4.3246,0.36785 6.40955,2.83155 4.42187,5.22656 -0.72455,0.87303 -2.8316,1.58399 -4.69336,1.58399 -3.2043,0 -3.37695,-0.18281 -3.37695,-3.56055 0,-2.61501 0.0416,-3.3072 1.57031,-3.36133 z"
           style="fill:#3498db;fill-opacity:1"
           inkscape:connector-curvature="0" /></g><path
         id="path4875"
         transform="matrix(0.8,0,0,-0.8,0,416)"
         d="m 361.24023,182.4082 c -21.80655,0 -23.40183,0.17467 -25.41211,2.79297 -0.63893,0.8322 -0.87589,6.94846 -0.89257,23.05274 l -0.0234,21.91992 1.81836,1.8164 1.81836,1.81836 22.05664,0 22.05859,0 2.00196,-1.72461 2.0039,-1.72265 0,-22.25195 0,-22.25586 -2.0039,-1.72266 -2.00196,-1.72266 -21.42383,0 z m -18.47461,7.85352 18.2168,0 18.2168,0 -0.19141,18.02539 -0.1914,18.02539 -17.67969,0.0469 c -9.7239,0.0265 -17.83534,-0.10678 -18.02539,-0.29688 -0.19005,-0.19006 -0.34571,-8.32387 -0.34571,-18.07422 l 0,-17.72656 z m 9.99415,4.99609 0,2.5 c 0,1.95829 0.2874,2.49805 1.32617,2.49805 1.23302,0 1.16632,0.53419 -0.93946,7.67383 -1.91557,6.4948 -2.50356,7.70929 -3.82421,7.90234 -1.25713,0.18378 -1.5586,0.70292 -1.5586,2.67578 l 0,2.45117 5.35352,0 5.35351,0 0,-2.5 c 0,-1.81896 -0.31132,-2.49804 -1.14648,-2.49804 -0.75279,0 -0.9992,-0.38792 -0.71484,-1.12891 0.23832,-0.62106 0.43359,-1.42463 0.43359,-1.78515 0,-0.36052 1.44605,-0.6543 3.21289,-0.6543 1.76684,0 3.21289,0.29378 3.21289,0.6543 0,0.36052 0.19528,1.16409 0.43359,1.78515 0.28435,0.74099 0.0379,1.12891 -0.71484,1.12891 -0.83515,0 -1.14648,0.67908 -1.14648,2.49804 l 0,2.5 5.27148,0 5.27344,0 0.32812,-2.23828 c 0.24228,-1.65071 0.0262,-2.31711 -0.83008,-2.54101 -0.7628,-0.19949 -1.94935,-2.81632 -3.46093,-7.63867 -2.65958,-8.48484 -2.62999,-8.28516 -1.22852,-8.28516 0.74786,0 1.07031,-0.75301 1.07031,-2.49805 l 0,-2.5 -7.85156,0 -7.85351,0 z m 7.45898,7.04883 0.85742,2.36524 c 0.4713,1.30099 0.88026,2.60591 0.91016,2.90039 0.0299,0.29447 -0.70382,0.53711 -1.63086,0.53711 -1.62194,0 -1.65719,-0.11084 -0.91211,-2.90235 l 0.77539,-2.90039 z"
         style="fill:#e74c3c;fill-opacity:1"
         inkscape:connector-curvature="0" /><g
         style="fill:#3498db;fill-opacity:1"
         id="g4893"
         transform="matrix(0.71387586,0,0,0.71387586,445.20545,121.83716)"><path
           id="path4895"
           transform="matrix(0.8,0,0,-0.8,0,416)"
           d="m -222.49219,344.97852 -2.45312,2.45312 -2.45508,2.45508 0,30.41016 c 0,29.25138 0.0787,30.51245 2.07227,33.04687 l 2.07226,2.63477 31.97656,0 31.97461,0 2.45117,-2.64649 2.45313,-2.64648 0,-29.30664 c 0,-31.03002 -0.30119,-33.30583 -4.6582,-35.29102 -1.6157,-0.73616 -12.71179,-1.10937 -32.9336,-1.10937 l -30.5,0 z m 6.0918,11 25.5,0 25.5,0 0,25 0,25 -25.5,0 -25.5,0 0,-25 0,-25 z"
           style="fill:#3498db;fill-opacity:1"
           inkscape:connector-curvature="0" /><path
           id="path4897"
           transform="matrix(0.8,0,0,-0.8,0,416)"
           d="m -208.40039,362.82227 0,3.57812 c 0,2.91081 0.3727,3.57813 2,3.57813 1.87875,0 2,0.66667 2,11 0,10.33333 -0.12121,11 -2,11 -1.61905,0 -2,0.66667 -2,3.5 l 0,3.5 9,0 9,0 0,-3.09375 c 0,-2.25262 -0.5437,-3.23635 -2,-3.61719 -1.61629,-0.42266 -2,-1.36389 -2,-4.90625 0,-6.68101 2.24295,-5.54178 7.12305,3.61719 l 4.26172,8 5.30859,0 5.30664,0 0,-3.5 c 0,-2.95483 -0.35048,-3.5041 -2.25,-3.52735 -1.66076,-0.0203 -2.86329,-1.24052 -4.58984,-4.66015 -2.08298,-4.12562 -2.16513,-4.73149 -0.75,-5.52344 2.145,-1.2004 4.58984,-6.11339 4.58984,-9.22461 0,-1.39364 -1.3125,-4.00267 -2.91602,-5.79883 l -2.91406,-3.26562 -13.58594,-0.32813 -13.58398,-0.32812 z m 15.57031,7.23437 c 0.50956,-0.018 1.18483,0.0353 2.07813,0.11133 4.3246,0.36785 6.40955,2.83155 4.42187,5.22656 -0.72455,0.87303 -2.8316,1.58399 -4.69336,1.58399 -3.2043,0 -3.37695,-0.18281 -3.37695,-3.56055 0,-2.61501 0.0416,-3.3072 1.57031,-3.36133 z"
           style="fill:#3498db;fill-opacity:1"
           inkscape:connector-curvature="0" /></g></g></g></svg>