<?xml version="1.0" encoding="utf-8"?>

<!DOCTYPE svg PUBLIC "-//W3C//DTD SVG 1.1//EN" "http://www.w3.org/Graphics/SVG/1.1/DTD/svg11.dtd">
<svg version="1.1" id="Layer_1" xmlns="http://www.w3.org/2000/svg" xmlns:xlink="http://www.w3.org/1999/xlink" x="0px" y="0px"
	 viewBox="0 0 1789.9934 1623.7019" enable-background="new 0 0 1789.9934 1623.7019" xml:space="preserve">
<g>
	<path fill="#0000FF" d="M68.4882,253.9638c27.5783-43.6276,58.5465-84.9566,92.553-123.6079
		C124.4818,164.0991,93.1136,205.2683,68.4882,253.9638z"/>
	<path fill="#0000FF" d="M1618.1403,123.6105c49.4653,55.1205,92.7911,115.9836,128.8296,181.5661
		C1719.7357,232.0271,1675.7378,170.8798,1618.1403,123.6105z"/>
	<path fill="#603813" d="M1770.1027,391.4274c-2.1976-12.9472-4.9233-25.8331-8.215-38.651
		c-4.2087-16.3878-9.2034-32.2514-14.9178-47.5998c-36.0385-65.5824-79.3643-126.4455-128.8296-181.5661
		c-21.5681-17.7006-45.0326-33.4643-70.2469-47.174C1641.5219,164.4039,1717.7023,271.2204,1770.1027,391.4274z"/>
	<path fill="#603813" d="M29.9472,356.6819C81.7372,250.0107,152.8504,154.0177,239.0673,73.5748
		c-27.9345,15.7721-54.0897,34.6884-78.0261,56.781c-34.0064,38.6513-64.9747,79.9803-92.553,123.6079
		C52.7389,285.1073,39.7584,319.3383,29.9472,356.6819z"/>
	<path fill="#998675" d="M29.9472,356.6819c-1.4241,5.4204-2.8018,10.8866-4.0908,16.4384
		c-4.2307,18.2216-7.3641,36.4614-9.4846,54.7172c58.9843-148.538,154.9348-279.4311,277.4359-380.3111
		c-18.877,7.445-37.1614,16.1231-54.7404,26.0484C152.8504,154.0177,81.7372,250.0107,29.9472,356.6819z"/>
	<path fill="#998675" d="M1776.5793,454.532c-0.7928-21.1869-2.9329-42.2272-6.4767-63.1047
		c-52.4004-120.207-128.5808-227.0235-222.2094-314.9908c-17.5035-9.5171-35.8484-18.0446-54.9729-25.5579
		C1619.7129,156.2797,1718.9353,294.7592,1776.5793,454.532z"/>
	<path fill="#662D91" d="M1775.8141,507.3077c1.1481-17.6852,1.4203-35.2808,0.7653-52.7756
		c-57.644-159.7728-156.8665-298.2523-283.6589-403.6533c-15.7098-6.1717-31.9518-11.6498-48.6868-16.4289
		C1599.3024,150.4152,1717.7578,314.5153,1775.8141,507.3077z"/>
	<path fill="#662D91" d="M16.3718,427.8376c-2.1896,18.8512-3.275,37.7199-3.3064,56.6038
		C73.1806,303.082,188.3548,144.9238,340.6354,31.9211c-15.9557,4.4044-31.5881,9.5948-46.8277,15.6053
		C171.3065,148.4065,75.3561,279.2996,16.3718,427.8376z"/>
	<path fill="#ED1C24" d="M1770.7667,554.1142c2.3524-15.668,4.0387-31.2718,5.0474-46.8065
		c-58.0563-192.7924-176.5117-356.8925-331.5804-472.8578c-14.6472-4.1829-29.6719-7.8294-45.0602-10.9192
		C1579.5992,145.7995,1715.3112,332.0688,1770.7667,554.1142z"/>
	<path fill="#ED1C24" d="M13.0653,484.4413c-0.0269,16.1622,0.7185,32.3355,2.2089,48.5189
		C73.1907,324.0165,204.6194,142.6514,383.0567,22.2271c-14.3653,2.6248-28.5175,5.8561-42.4213,9.694
		C188.3548,144.9238,73.1806,303.082,13.0653,484.4413z"/>
	<path fill="#534741" d="M15.2743,532.9602c1.3323,14.4666,3.2418,28.9409,5.7423,43.4225
		c53.439-232.9948,199.2116-435.1068,401.4493-559.7933c-13.2908,1.3859-26.4352,3.267-39.4092,5.6377
		C204.6194,142.6514,73.1907,324.0165,15.2743,532.9602z"/>
	<path fill="#534741" d="M1762.7511,596.8857c3.2029-14.3062,5.8827-28.565,8.0156-42.7715
		c-55.4556-222.0454-191.1675-408.3147-371.5933-530.5836c-13.9083-2.7926-28.1138-5.1283-42.5951-7.0089
		C1560.2985,141.9868,1712.1115,348.1069,1762.7511,596.8857z"/>
	<path fill="#603813" d="M1752.495,636.815c3.8643-13.3482,7.2852-26.659,10.2561-39.9293
		c-50.6396-248.7789-202.4526-454.899-406.1727-580.364c-4.6434-0.603-9.3051-1.1759-14.0052-1.684
		c-8.9794-0.9704-17.8365-1.6938-26.5841-2.1888C1541.3453,138.8687,1708.4982,363.1398,1752.495,636.815z"/>
	<path fill="#603813" d="M21.0166,576.3828c2.2885,13.2536,5.0642,26.5132,8.2976,39.7781
		C76.5438,361.7384,235.3712,140.5321,459.7737,13.9717c-5.5783,0.2163-11.1925,0.4924-16.8632,0.8661
		c-6.8513,0.4516-13.6647,1.0447-20.4447,1.7516C220.2282,141.2759,74.4556,343.3879,21.0166,576.3828z"/>
	<path fill="#00A99D" d="M29.3142,616.1608c3.0284,12.4238,6.4535,24.8522,10.2835,37.2847
		C79.1248,379.526,250.0852,140.178,495.5957,13.6619c-4.2296-0.0948-8.4778-0.1599-12.7659-0.1598
		c-7.5869,0-15.2813,0.168-23.056,0.4696C235.3712,140.5321,76.5438,361.7384,29.3142,616.1608z"/>
	<path fill="#00A99D" d="M1735.9103,642.0691c1.7186,10.8514,3.2238,21.6874,4.5225,32.504
		c4.4016-12.6166,8.428-25.2038,12.0623-37.7581c-43.9968-273.6752-211.1497-497.9464-436.506-624.166
		c-9.3877-0.5311-18.6487-0.7981-27.7859-0.7981c-3.353,0-6.6838,0.0454-10.002,0.1156
		C1514.2017,132.4741,1691.2848,360.3147,1735.9103,642.0691z"/>
	<path fill="#534741" d="M39.5977,653.4455c3.6238,11.7632,7.6179,23.5303,11.9364,35.3004
		C82.0119,397.1096,264.2282,140.3806,529.8254,15.5007c-11.1884-0.9651-22.5999-1.578-34.2297-1.8388
		C250.0852,140.178,79.1248,379.526,39.5977,653.4455z"/>
	<path fill="#534741" d="M1716.9965,633.1994c4.4954,25.9757,7.734,51.8776,9.7855,77.6476
		c4.8915-12.1167,9.4414-24.2087,13.6508-36.274c-1.2987-10.8166-2.8038-21.6525-4.5225-32.504
		c-44.6255-281.7544-221.7086-509.595-457.7091-630.1026c-11.885,0.2512-23.5435,0.9548-34.9801,2.0823
		C1484.274,126.5215,1668.1993,351.2278,1716.9965,633.1994z"/>
	<path fill="#603813" d="M880.9745,1601.5526c4.295,3.4336,8.5936,6.8665,12.8974,10.2983
		c4.7177-3.5132,9.424-7.0314,14.1234-10.5526C898.9667,1601.5311,889.9588,1601.6165,880.9745,1601.5526z"/>
	<path fill="#603813" d="M1698.0072,624.8368c7.6267,40.61,12.119,81.0814,13.6774,121.1711
		c5.3406-11.7414,10.3749-23.4623,15.0974-35.1609c-2.0515-25.77-5.2902-51.6719-9.7855-77.6476
		c-48.7971-281.9716-232.7224-506.6779-473.7754-619.1506c-10.9851,1.0829-21.7638,2.5595-32.3339,4.4172
		C1455.5516,122.9614,1645.2156,343.7345,1698.0072,624.8368z"/>
	<path fill="#603813" d="M51.5341,688.7459c4.1484,11.3063,8.6034,22.6154,13.3726,33.927
		c20.1018-307.7494,212.6806-581.3445,497.3956-703.324c-10.6098-1.6182-21.4401-2.8962-32.4769-3.8482
		C264.2282,140.3806,82.0119,397.1096,51.5341,688.7459z"/>
	<path fill="#FF00FF" d="M860.1756,1584.8882c6.9205,5.5568,13.8532,11.1118,20.799,16.6644
		c8.9843,0.0638,17.9922-0.0215,27.0208-0.2543c7.6424-5.7266,15.2607-11.463,22.8532-17.2097
		C907.1522,1585.3987,883.5771,1585.6534,860.1756,1584.8882z"/>
	<path fill="#FF00FF" d="M1678.9528,616.9816c11.1177,54.8683,16.386,109.5634,16.2402,163.4409
		c5.7813-11.4892,11.282-22.9615,16.4916-34.4145c-1.5583-40.0898-6.0507-80.5611-13.6774-121.1711
		c-52.7916-281.1023-242.4556-501.8754-487.12-606.3708c-10.1434,1.7828-20.1008,3.905-29.8608,6.3718
		C1428.0066,121.514,1622.364,337.7047,1678.9528,616.9816z"/>
	<path fill="#FF00FF" d="M64.9067,722.6729c4.615,10.9461,9.525,21.8945,14.7031,32.8449
		C88.0548,433.2137,290.0316,143.1453,592.863,25.0547c-9.9864-2.2066-20.167-4.1204-30.5607-5.7058
		C277.5873,141.3284,85.0085,414.9235,64.9067,722.6729z"/>
	<path fill="#8C6239" d="M838.7646,1567.6534c7.1226,5.7471,14.2589,11.4922,21.4109,17.2347
		c23.4015,0.7653,46.9766,0.5105,70.6729-0.7996c7.9064-5.9844,15.7828-11.9802,23.6324-17.9857
		C915.5645,1569.4932,876.9101,1569.9535,838.7646,1567.6534z"/>
	<path fill="#8C6239" d="M1659.844,609.6338c14.9847,68.8834,20.4884,137.6201,17.4103,204.8582
		c6.2483-11.3716,12.2321-22.7288,17.9387-34.0696c0.1458-53.8774-5.1226-108.5725-16.2402-163.4409
		c-56.5887-279.2769-250.9462-495.4676-497.9264-592.1438c-9.3679,2.3678-18.5526,5.0541-27.5659,8.0259
		C1401.5973,121.953,1599.6711,333.0235,1659.844,609.6338z"/>
	<path fill="#8C6239" d="M79.6099,755.5178c5.0677,10.717,10.3924,21.4358,15.9825,32.1562
		C91.0544,452.2229,301.4707,145.8327,621.5317,32.3858c-9.3634-2.7298-18.9188-5.1767-28.6686-7.3312
		C290.0316,143.1453,88.0548,433.2137,79.6099,755.5178z"/>
	<path fill="#662D91" d="M95.5924,787.674c5.5107,10.5682,11.2676,21.1378,17.2696,31.7084
		C93.9675,472.1019,311.8965,149.4013,648.3991,41.1737c-8.7715-3.1963-17.7299-6.1239-26.8674-8.7879
		C301.4707,145.8327,91.0544,452.2229,95.5924,787.674z"/>
	<path fill="#662D91" d="M1640.6915,602.7933c19.2421,82.7475,24.423,165.4784,17.1273,245.6987
		c6.7417-11.3463,13.2151-22.68,19.4354-34.0001c3.0781-67.2382-2.4255-135.9749-17.4103-204.8582
		c-60.1729-276.6103-258.2467-487.6808-506.3835-576.7701c-8.6816,2.8624-17.1998,5.9964-25.5516,9.396
		C1376.2181,124.0224,1577.1512,329.5484,1640.6915,602.7933z"/>
	<path fill="#662D91" d="M816.6032,1549.7231c7.3695,5.9789,14.7568,11.9559,22.1614,17.9303
		c38.1454,2.3,76.7999,1.8397,115.7163-1.5505c8.243-6.3068,16.4536-12.6248,24.631-18.9539
		C924.3234,1553.8262,869.9105,1554.5334,816.6032,1549.7231z"/>
	<path fill="#C1272D" d="M1621.506,596.46c23.9125,96.5604,28.1299,193.3798,15.2295,286.2355
		c7.2776-11.4116,14.3159-22.8137,21.0834-34.2034c7.2957-80.2203,2.1147-162.9512-17.1273-245.6987
		c-63.5403-273.2449-264.4734-478.7709-512.7827-560.5337c-8.0533,3.2781-15.9507,6.8039-23.6964,10.5605
		C1351.8231,127.5485,1554.8229,327.1896,1621.506,596.46z"/>
	<path fill="#C1272D" d="M112.862,819.3824c5.9645,10.5046,12.1765,21.0103,18.6104,31.5167
		C96.7415,493.0578,321.1994,153.8391,673.4136,51.2159c-8.1683-3.5882-16.5037-6.941-25.0145-10.0423
		C311.8965,149.4013,93.9675,472.1019,112.862,819.3824z"/>
	<path fill="#C1272D" d="M793.5808,1530.9878c7.6531,6.2474,15.3277,12.4926,23.0224,18.7354
		c53.3073,4.8103,107.7202,4.103,162.5088-2.5741c8.634-6.6826,17.2318-13.3772,25.7896-20.084
		C933.5287,1538.4937,862.5183,1539.4623,793.5808,1530.9878z"/>
	<path fill="#ED1C24" d="M1602.2976,590.6332c29.0454,110.5004,31.5419,221.7304,11.4532,326.9405
		c7.9209-11.6349,15.5762-23.2615,22.9846-34.8783c12.9004-92.8557,8.683-189.675-15.2295-286.2355
		c-66.6831-269.2703-269.6829-468.9115-517.2936-543.6398c-7.4883,3.6316-14.8383,7.4732-22.038,11.5332
		C1328.3401,132.3462,1532.698,325.8488,1602.2976,590.6332z"/>
	<path fill="#ED1C24" d="M769.4847,1511.2495c8.007,6.582,16.0393,13.1615,24.0961,19.7383
		c68.9375,8.4745,139.9479,7.5059,211.3208-3.9227c9.1329-7.1577,18.2233-14.3282,27.265-21.5125
		C943.363,1523.5643,854.6376,1524.7874,769.4847,1511.2495z"/>
	<path fill="#ED1C24" d="M131.4723,850.8992c6.4567,10.5436,13.1461,21.088,20.0595,31.6328
		C99.2883,515.2971,329.346,159.0969,696.7171,62.339c-7.6079-3.9288-15.3744-7.6399-23.3035-11.1231
		C321.1994,153.8391,96.7415,493.0578,131.4723,850.8992z"/>
	<path fill="#FF0000" d="M151.5318,882.5319c7.0234,10.7127,14.2685,21.4258,21.7468,32.1391
		C103.2579,548.2204,325.0557,183.2573,690.9123,81.4836c9.1686-2.5506,18.3454-4.9103,27.5258-7.0866
		c-7.0884-4.2246-14.3313-8.2419-21.721-12.058C329.346,159.0969,99.2883,515.2971,151.5318,882.5319z"/>
	<path fill="#FF0000" d="M1583.0773,585.3124c34.6997,124.7387,34.5404,250.9335,5.4039,368.2195
		c8.6805-11.9927,17.1147-23.9797,25.2697-35.9581c20.0886-105.2101,17.5922-216.4401-11.4532-326.9405
		c-69.5996-264.7845-273.9575-458.287-520.1232-526.2799c-6.9656,3.9281-13.7971,8.0506-20.4922,12.3626
		C1305.7371,138.2866,1510.7924,325.4625,1583.0773,585.3124z"/>
	<path fill="#FF0000" d="M744.0649,1490.271c8.4423,6.9956,16.9167,13.9885,25.4198,20.9785
		c85.1529,13.5378,173.8783,12.3148,262.6819-5.6969c9.7654-7.7592,19.4706-15.5344,29.1245-23.3229
		C954.068,1509.1702,846.1383,1510.6061,744.0649,1490.271z"/>
	<path fill="#603813" d="M173.2787,914.671c7.671,10.9894,15.584,21.9789,23.7157,32.9683
		C107.6016,582.3311,320.7185,207.7859,685.2596,100.747c17.774-5.2189,35.5891-9.7047,53.413-13.4819
		c-6.6019-4.4778-13.3497-8.7647-20.2345-12.8681c-9.1804,2.1764-18.3572,4.536-27.5258,7.0866
		C325.0557,183.2573,103.2579,548.2204,173.2787,914.671z"/>
	<path fill="#603813" d="M716.9657,1467.7174c8.9932,7.521,18.03,15.0388,27.0992,22.5536
		c102.0734,20.3351,210.0031,18.8992,317.2262-8.0413c10.6476-8.5901,21.2302-17.1967,31.7354-25.8206
		c-2.9636,0.9119-5.9366,1.8068-8.9205,2.683C960.0892,1495.5067,834.0792,1496.3914,716.9657,1467.7174z"/>
	<path fill="#603813" d="M1563.8555,580.4965c40.9907,139.6019,36.9628,281.7296-3.5748,410.8489
		c9.6794-12.6091,19.0812-25.2145,28.2006-37.8136c29.1365-117.286,29.2958-243.4808-5.4039-368.2195
		c-72.2849-259.8499-277.3402-447.0258-521.395-508.5964c-6.4938,4.1822-12.8573,8.5443-19.0957,13.0721
		C1283.9562,145.2467,1489.1167,325.9595,1563.8555,580.4965z"/>
	<path fill="#D4145A" d="M1544.6423,576.1846c48.1127,155.6016,38.5088,315.2696-16.6321,455.9722
		c11.0679-13.6055,21.8295-27.2104,32.2704-40.8114c40.5376-129.1193,44.5656-271.2471,3.5748-410.8489
		c-74.7388-254.537-279.8993-435.2499-521.2689-490.7084c-6.0692,4.4052-12.0177,8.97-17.8447,13.688
		C1262.9365,153.1222,1467.6779,327.2729,1544.6423,576.1846z"/>
	<path fill="#D4145A" d="M196.9944,947.6393c8.4976,11.4836,17.2371,22.9669,26.2175,34.4495
		c-111.0933-363.9777,93.0267-749.5542,456.9057-862.0671c25.725-7.9543,51.5613-14.3297,77.4047-19.1845
		c-6.1501-4.6953-12.4336-9.2204-18.8497-13.5722c-17.8239,3.7773-35.6389,8.2631-53.413,13.4819
		C320.7185,207.7859,107.6016,582.3311,196.9944,947.6393z"/>
	<path fill="#D4145A" d="M687.6349,1443.0504c9.729,8.2257,19.5035,16.4484,29.3308,24.667
		c117.1135,28.674,243.1235,27.7893,367.1403-8.6252c2.9839-0.8762,5.9569-1.7711,8.9205-2.683
		c11.9189-9.7844,23.7434-19.5901,35.4691-29.4152c-13.113,4.9381-26.4507,9.5208-40.016,13.7153
		C952.8715,1482.6399,814.1752,1480.7302,687.6349,1443.0504z"/>
	<path fill="#754C24" d="M223.2119,982.0888c9.5974,12.2714,19.4697,24.542,29.5941,36.8112
		c-3.6702-9.7518-7.146-19.6279-10.3989-29.6392C127.2873,634.9586,321.183,254.4169,675.4852,139.2972
		c33.0578-10.7411,66.344-18.7891,99.6218-24.2706c-5.7362-4.8871-11.5976-9.6185-17.5846-14.1893
		c-25.8434,4.8547-51.6797,11.2302-77.4047,19.1845C316.2386,232.5346,112.1186,618.1111,223.2119,982.0888z"/>
	<path fill="#754C24" d="M655.1237,1415.3826c10.7695,9.2268,21.608,18.4495,32.5112,27.6678
		c126.5403,37.6798,265.2366,39.5895,400.8447-2.3411c13.5653-4.1946,26.903-8.7772,40.016-13.7153
		c13.9962-11.7277,27.8469-23.4839,41.5511-35.2648c-24.9309,11.6383-50.84,21.89-77.6759,30.6096
		C944.0896,1470.5184,791.2166,1464.5608,655.1237,1415.3826z"/>
	<path fill="#754C24" d="M1525.4489,572.3752c56.4751,173.8128,38.5737,353.9371-36.1451,505.9446
		c13.2855-15.3846,26.1879-30.774,38.7065-46.163c55.1409-140.7026,64.7448-300.3707,16.6321-455.9722
		c-76.9645-248.9117-281.7058-423.0624-519.9005-472.7085c-5.6736,4.5939-11.2348,9.3291-16.6781,14.2063
		C1242.6517,161.8129,1446.4874,329.3571,1525.4489,572.3752z"/>
	<path fill="#7AC943" d="M617.6469,1383.0073c12.3907,10.7971,24.8871,21.5889,37.4768,32.3752
		c136.0929,49.1782,288.9659,55.1359,437.2472,6.9563c26.8359-8.7196,52.745-18.9713,77.6759-30.6096
		c18.4082-15.8246,36.5428-31.6951,54.3865-47.6047c-39.8175,24.0615-82.8118,44.2445-128.6526,59.8663
		C932.9682,1459.4745,763.4611,1447.4913,617.6469,1383.0073z"/>
	<path fill="#7AC943" d="M242.4071,989.2608c3.2529,10.0113,6.7288,19.8874,10.3989,29.6392
		c11.2653,13.6516,22.8432,27.3016,34.7282,40.9491c-9.9651-21.3894-18.8927-43.519-26.6774-66.3626
		C143.6567,649.571,327.4457,275.7629,671.3611,158.5627c39.799-13.5627,79.9982-23.0868,120.1536-28.8062
		c-5.3522-5.0534-10.8185-9.968-16.4078-14.7299c-33.2778,5.4815-66.564,13.5295-99.6218,24.2706
		C321.183,254.4169,127.2873,634.9586,242.4071,989.2608z"/>
	<path fill="#7AC943" d="M1506.2849,569.0671c67.2316,197.2858,35.4065,404.4024-68.8644,567.2791
		c17.8591-19.3275,35.1708-38.6729,51.8832-58.0264c74.7189-152.0074,92.6202-332.1318,36.1451-505.9446
		c-78.9614-243.0181-282.7971-410.5624-517.3851-454.6928c-5.311,4.7588-10.5112,9.6507-15.6025,14.667
		C1223.0657,171.254,1425.5542,332.1685,1506.2849,569.0671z"/>
	<path fill="#736357" d="M1487.1614,566.2584c119.0081,333.5435-54.9071,700.4088-388.4507,819.4168
		c-181.1658,64.64-372.1569,42.8521-527.9277-43.984c15.4397,13.7802,31.0685,27.5524,46.8638,41.3162
		c145.8142,64.484,315.3214,76.4672,478.1338,20.9835c45.8408-15.6218,88.8351-35.8048,128.6526-59.8663
		c77.0406-68.6906,148.6165-138.1154,212.9873-207.7783c104.2709-162.8767,136.0959-369.9933,68.8644-567.2791
		c-80.7307-236.8986-283.2192-397.8131-513.8237-436.7176c-4.977,4.9039-9.8438,9.9335-14.6104,15.0721
		C1204.1445,181.38,1404.8861,335.6661,1487.1614,566.2584z"/>
	<path fill="#736357" d="M260.8568,993.4865c7.7847,22.8436,16.7124,44.9732,26.6774,66.3626
		c14.3191,16.4426,29.0721,32.8818,44.2352,49.316c-20.6766-34.9109-38.3302-72.2954-52.4755-111.9406
		c-119.008-333.5433,54.9072-700.4088,388.4506-819.4169c45.9758-16.4041,92.5842-27.231,139.0897-32.8532
		c-4.9957-5.1985-10.0991-10.2691-15.3194-15.1981c-40.1554,5.7195-80.3546,15.2435-120.1536,28.8062
		C327.4457,275.7629,143.6567,649.571,260.8568,993.4865z"/>
	<path fill="#D9E021" d="M1468.0883,563.9473c120.5443,323.1916-43.7339,682.9103-366.9255,803.4547
		c-214.4589,79.9891-445,34.5631-611.0714-99.4855c26.2363,24.6132,53.1643,49.2062,80.6917,73.7747
		c155.7708,86.8361,346.7618,108.624,527.9277,43.984c333.5436-119.0081,507.4587-485.8734,388.4507-819.4168
		c-82.2753-230.5923-283.0168-384.8784-509.3105-418.8368c-4.6653,5.0294-9.2285,10.1691-13.6917,15.4126
		C1185.8605,192.1152,1384.4902,339.8128,1468.0883,563.9473z"/>
	<path fill="#D9E021" d="M279.2939,997.2246c14.1453,39.6451,31.799,77.0297,52.4755,111.9406
		c25.0292,27.1276,51.1723,54.2419,78.2821,81.3375c-47.1857-54.6324-85.6378-118.4254-112.3435-190.0261
		C177.1638,677.285,341.442,317.5661,664.6335,197.0218c51.6141-19.2511,104.1595-31.2259,156.514-36.4613
		c-4.6652-5.3257-9.4352-10.5297-14.3134-15.6059c-46.5055,5.6222-93.1139,16.4492-139.0897,32.8532
		C334.2011,296.8158,160.2859,663.6813,279.2939,997.2246z"/>
	<path fill="#C1272D" d="M297.708,1000.4766c26.7057,71.6007,65.1578,135.3937,112.3435,190.0261
		c25.8369,25.8234,52.5553,51.6296,80.0399,77.4138c166.0714,134.0486,396.6124,179.4746,611.0714,99.4855
		c323.1917-120.5443,487.4698-480.2631,366.9255-803.4547c-83.598-224.1345-282.2278-371.8321-503.9291-401.1131
		c-4.3766,5.1418-8.6628,10.3766-12.8445,15.7142c216.868,24.86,413.0583,166.0257,497.7612,383.5833
		c121.8097,312.8657-33.0715,665.2396-345.9373,787.0494c-312.8658,121.8097-665.2397-33.0718-787.0494-345.9375
		S349.161,338.004,662.0267,216.1944c56.739-22.0905,114.7769-35.0732,172.5039-39.6716
		c-4.358-5.4381-8.8224-10.7557-13.3831-15.9622c-52.3544,5.2354-104.8998,17.2102-156.514,36.4613
		C341.442,317.5661,177.1638,677.285,297.708,1000.4766z"/>
	<path fill="#FCEE21" d="M316.0893,1003.2437c121.8097,312.8657,474.1836,467.7472,787.0494,345.9375
		c312.8657-121.8098,467.7469-474.1838,345.9373-787.0494c-84.7029-217.5576-280.8932-358.7233-497.7612-383.5833
		c-4.1065,5.2417-8.1133,10.5806-12.0315,16.0015c211.8173,20.6933,405.261,155.3795,490.8516,366.2596
		c122.8054,302.5712-22.9233,647.4072-325.4945,770.2127s-647.4073-22.9233-770.2129-325.4946s22.9234-647.4073,325.4947-770.2128
		c61.3635-24.9058,124.4651-38.7649,187.1006-42.5124c-4.0683-5.5327-8.2307-10.9621-12.4921-16.2798
		c-57.727,4.5985-115.765,17.5811-172.5039,39.6716C349.161,338.004,194.2796,690.378,316.0893,1003.2437z"/>
	<path fill="#FCEE21" d="M334.4274,1005.5276c122.8056,302.5712,467.6417,448.3001,770.2129,325.4946
		s448.2999-467.6415,325.4945-770.2127c-85.5906-210.8801-279.0343-345.5663-490.8516-366.2596
		c-3.8524,5.3297-7.6138,10.7428-11.2838,16.2367c206.5859,16.765,397.0086,145.0598,483.2753,349.1915
		c123.533,292.3139-13.291,629.4245-305.605,752.9572c-292.3138,123.533-629.4244-13.291-752.9573-305.605
		s13.2911-629.4244,305.605-752.9573c65.516-27.6872,133.2817-42.2865,200.389-44.9971
		c-3.8029-5.6234-7.6959-11.1502-11.6838-16.5734c-62.6355,3.7475-125.7371,17.6066-187.1006,42.5124
		C357.3508,358.1204,211.6219,702.9564,334.4274,1005.5276z"/>
	<path fill="#D9E021" d="M352.7125,1007.3303c123.5329,292.314,460.6434,429.138,752.9573,305.605
		c292.314-123.5327,429.1379-460.6433,305.605-752.9572c-86.2667-204.1317-276.6895-332.4265-483.2753-349.1915
		c-3.6118,5.4071-7.1371,10.8896-10.5718,16.4473c201.1965,13.0683,388.3442,135.0699,475.0786,332.401
		c123.9932,282.0992-4.1772,611.3021-286.2765,735.2953s-611.3021-4.1772-735.2952-286.2766s4.1772-611.3021,286.2766-735.2952
		c69.2135-30.4219,141.2618-45.6541,212.4197-47.1678c-3.5514-5.6997-7.196-11.3018-10.9243-16.8147
		c-67.1074,2.7106-134.873,17.3099-200.389,44.9971C366.0036,377.9059,229.1796,715.0164,352.7125,1007.3303z"/>
	<path fill="#534741" d="M370.9345,1008.6536c123.9931,282.0993,453.1959,410.2696,735.2952,286.2766
		s410.2697-453.196,286.2765-735.2953c-86.7344-197.3312-273.8821-319.3327-475.0786-332.401
		c-3.3839,5.4751-6.6791,11.0227-9.8906,16.6356c195.6693,9.5975,379.3061,125.413,466.3022,315.9077
		c124.1875,271.9327,4.4164,593.0518-267.5166,717.2391c-271.9327,124.1877-593.0516,4.4165-717.2391-267.5163
		s-4.4164-593.0518,267.5164-717.2393c72.4649-33.0935,148.4219-48.8592,223.2151-49.042
		c-3.3118-5.7609-6.7031-11.4411-10.1841-17.028c-71.158,1.5136-143.2062,16.7459-212.4197,47.1678
		C375.1118,397.3515,246.9414,726.5544,370.9345,1008.6536z"/>
	<path fill="#C1272D" d="M656.5999,292.2606c-271.9327,124.1876-391.7039,445.3065-267.5164,717.2393
		s445.3065,391.704,717.2391,267.5163c271.933-124.1874,391.7041-445.3064,267.5166-717.2391
		c-86.9961-190.4947-270.6329-306.3102-466.3022-315.9077c-3.1686,5.5378-6.2551,11.1392-9.2557,16.8032
		c190.0283,6.3396,369.9449,116.0861,457.0021,299.729c124.1178,261.8199,12.488,574.6843-249.3318,698.802
		s-574.6844,12.4878-698.8021-249.332s-12.4879-574.6843,249.3321-698.802c75.2988-35.696,154.8192-51.8869,232.858-50.6195
		c-3.0925-5.8259-6.2692-11.5685-9.5247-17.2314C805.0218,243.4014,729.0648,259.1671,656.5999,292.2606z"/>
	<path fill="#3FA9F5" d="M656.4817,311.0696c-261.8201,124.1177-373.4498,436.982-249.3321,698.802
		s436.982,373.4496,698.8021,249.332s373.4496-436.9821,249.3318-698.802c-87.0571-183.6429-266.9738-293.3894-457.0021-299.729
		c-1.4882,2.8091-2.9628,5.628-4.4096,8.4666c-1.4888-2.918-3.0038-5.8101-4.5321-8.6891
		C811.3009,259.1827,731.7805,275.3736,656.4817,311.0696z M1336.8494,561.5054c123.785,251.7663,20.036,556.2109-231.7303,679.9961
		s-556.2109,20.0359-679.9961-231.7303S405.087,453.5601,656.8533,329.775S1213.0642,309.739,1336.8494,561.5054z"/>
	<path fill="#998675" d="M425.1229,1009.7711c123.7852,251.7662,428.2299,355.5155,679.9961,231.7303
		s355.5154-428.2298,231.7303-679.9961S908.6196,205.9898,656.8533,329.775S301.3377,758.0048,425.1229,1009.7711z
		 M1318.5465,563.0849c123.1917,241.7772,27.0591,537.6429-214.7183,660.8347c-241.7771,123.1914-537.6427,27.059-660.8345-214.7183
		c-123.1916-241.7772-27.059-537.6429,214.7183-660.8346S1195.3547,321.3077,1318.5465,563.0849z"/>
	<path fill="#D4145A" d="M442.9937,1009.2013c123.1918,241.7772,419.0574,337.9097,660.8345,214.7183
		c241.7773-123.1918,337.9099-419.0574,214.7183-660.8347S899.4891,225.1751,657.712,348.3667S319.8021,767.4241,442.9937,1009.2013
		z M659.0543,366.8347c231.8582-122.3389,518.9915-33.5561,641.3304,198.3019s33.5562,518.9916-198.3019,641.3304
		s-518.9915,33.5563-641.3306-198.3019C338.4135,776.3071,427.1962,489.1737,659.0543,366.8347z"/>
	<path fill="#C7B299" d="M460.7523,1008.1652c122.3391,231.8582,409.4724,320.6409,641.3306,198.3019
		s320.6409-409.4723,198.3019-641.3304S890.9125,244.4958,659.0543,366.8347S338.4135,776.3071,460.7523,1008.1652z
		 M660.877,385.1689c222.0142-121.229,500.268-39.5263,621.4969,182.4879c121.2288,222.0143,39.5264,500.2677-182.4879,621.4969
		c-222.0143,121.2289-500.268,39.5262-621.4968-182.488C357.1601,784.6515,438.8627,506.3979,660.877,385.1689z"/>
	<path fill="#0000FF" d="M478.3891,1006.6658c121.2289,222.0143,399.4826,303.7169,621.4968,182.488
		c222.0143-121.2292,303.7167-399.4827,182.4879-621.4969C1161.145,345.6426,882.8912,263.9399,660.877,385.1689
		S357.1601,784.6515,478.3891,1006.6658z M663.1765,403.3595c212.2511-119.8637,481.4832-44.9689,601.3471,167.2821
		c119.8635,212.2511,44.9688,481.4833-167.2822,601.347c-212.2512,119.8635-481.4833,44.9688-601.347-167.2822
		S450.9254,523.2231,663.1765,403.3595z"/>
	<path fill="#00FF00" d="M495.8943,1004.7064c119.8637,212.251,389.0958,287.1458,601.347,167.2822
		c212.251-119.8638,287.1458-389.0959,167.2822-601.347c-119.8639-212.251-389.096-287.1458-601.3471-167.2821
		S376.0306,792.4554,495.8943,1004.7064z M665.949,421.3965c202.5736-118.2452,462.6489-49.8835,580.8942,152.6903
		c118.2451,202.5737,49.8834,462.6489-152.6906,580.8942c-202.5736,118.2451-462.6489,49.8834-580.894-152.6902
		C395.0133,799.7169,463.3751,539.6417,665.949,421.3965z"/>
	<path fill="#C69C6D" d="M513.2586,1002.2907c118.2451,202.5737,378.3204,270.9354,580.894,152.6902
		c202.574-118.2452,270.9357-378.3204,152.6906-580.8942C1128.5979,371.5131,868.5226,303.1513,665.949,421.3965
		C463.3751,539.6417,395.0133,799.7169,513.2586,1002.2907z M669.1903,439.2702
		c192.9876-116.3758,443.7761-54.2697,560.152,138.7179c116.3757,192.9876,54.2695,443.7762-138.718,560.1519
		c-192.9876,116.3759-443.776,54.2698-560.1519-138.7178S476.2027,555.646,669.1903,439.2702z"/>
	<path fill="#2E3192" d="M530.4724,999.4222c116.3759,192.9876,367.1642,255.0937,560.1519,138.7178
		c192.9875-116.3757,255.0938-367.1643,138.718-560.1519c-116.3759-192.9875-367.1644-255.0937-560.152-138.7179
		S414.0966,806.4346,530.4724,999.4222z M672.8966,456.971c183.4976-114.2577,424.8761-58.1275,539.1338,125.3701
		c114.2576,183.4977,58.1276,424.8761-125.3702,539.1339c-183.4976,114.2576-424.8762,58.1273-539.1338-125.3702
		C433.2687,812.607,489.3989,571.2286,672.8966,456.971z"/>
	<path fill="#D9E021" d="M547.5264,996.1047c114.2576,183.4976,355.6362,239.6278,539.1338,125.3702
		c183.4978-114.2578,239.6278-355.6361,125.3702-539.1339C1097.7727,398.8434,856.3942,342.7133,672.8966,456.971
		S433.2687,812.607,547.5264,996.1047z M677.0634,474.489c174.1093-111.8932,405.9602-61.4571,517.8534,112.6521
		c111.8933,174.1093,61.4572,405.9601-112.6521,517.8533c-174.1093,111.8933-405.9602,61.4573-517.8533-112.652
		C452.518,818.2332,502.9541,586.3823,677.0634,474.489z"/>
	<path fill="#2E3192" d="M564.4113,992.3424c111.8931,174.1093,343.7441,224.5453,517.8533,112.652
		c174.1093-111.8931,224.5454-343.744,112.6521-517.8533C1083.0236,413.0319,851.1726,362.5958,677.0634,474.489
		C502.9541,586.3823,452.518,818.2332,564.4113,992.3424z M681.6863,491.815c164.8273-109.2849,387.0392-64.259,496.3242,100.5683
		s64.2592,387.0394-100.5682,496.3243c-164.8273,109.285-387.0394,64.2592-496.3242-100.5683
		C471.8329,823.312,516.8589,601.1,681.6863,491.815z"/>
	<path fill="#39B54A" d="M581.118,988.1393c109.2849,164.8275,331.4969,209.8533,496.3242,100.5683
		c164.8274-109.2849,209.8533-331.4969,100.5682-496.3243S846.5136,382.5301,681.6863,491.815S471.8329,823.312,581.118,988.1393z
		 M686.7604,508.9395c155.6571-106.4355,368.1251-66.5336,474.5605,89.1234c106.4355,155.657,66.5337,368.1249-89.1233,474.5604
		s-368.125,66.5336-474.5605-89.1233S531.1035,615.3751,686.7604,508.9395z"/>
	<path fill="#0000FF" d="M597.6371,983.5c106.4355,155.6569,318.9036,195.5588,474.5605,89.1233s195.5588-318.9034,89.1233-474.5604
		c-106.4354-155.657-318.9034-195.5589-474.5605-89.1234C531.1035,615.3751,491.2016,827.843,597.6371,983.5z M692.2811,525.8531
		c146.6033-103.3475,349.2284-68.2819,452.5758,78.3214s68.2817,349.2282-78.3213,452.5757S717.3074,1125.032,613.96,978.4288
		C510.6124,831.8256,545.678,629.2006,692.2811,525.8531z"/>
	<path fill="#A67C52" d="M613.96,978.4288c103.3474,146.6031,305.9725,181.6687,452.5757,78.3213
		s181.6687-305.9725,78.3213-452.5757s-305.9725-181.6689-452.5758-78.3214C545.678,629.2006,510.6124,831.8256,613.96,978.4288z
		 M698.2435,542.5466c137.6707-100.0237,330.3602-69.5048,430.3839,68.166c100.0236,137.6708,69.5046,330.3604-68.1663,430.384
		c-137.6708,100.0238-330.3602,69.5046-430.3838-68.1661C530.0536,835.2597,560.5726,642.5703,698.2435,542.5466z"/>
	<path fill="#D9E021" d="M630.0774,972.9305c100.0236,137.6708,292.713,168.1899,430.3838,68.1661
		c137.6709-100.0237,168.1898-292.7132,68.1663-430.384c-100.0237-137.6708-292.7133-168.1897-430.3839-68.166
		C560.5726,642.5703,530.0536,835.2597,630.0774,972.9305z M704.6419,559.0109c128.8648-96.467,311.5323-70.2034,407.9992,58.6614
		c96.467,128.8647,70.2034,311.5323-58.6614,407.9993s-311.5322,70.2034-407.9993-58.6615
		C549.5135,838.1452,575.7772,655.4778,704.6419,559.0109z"/>
	<path fill="#FF931E" d="M645.9804,967.01c96.4671,128.8649,279.1346,155.1284,407.9993,58.6615s155.1284-279.1345,58.6614-407.9993
		c-96.4669-128.8648-279.1344-155.1284-407.9992-58.6614C575.7772,655.4778,549.5135,838.1452,645.9804,967.01z M711.4714,575.2368
		c120.1898-92.6802,292.7551-70.3793,385.4354,49.8107s70.3794,292.7552-49.8108,385.4355
		c-120.1897,92.6803-292.7551,70.3793-385.4354-49.8105C568.9804,840.4824,591.2813,667.9171,711.4714,575.2368z"/>
	<path fill="#D9E021" d="M661.6607,960.6724c92.6803,120.1898,265.2457,142.4908,385.4354,49.8105
		c120.1902-92.6802,142.4911-265.2456,49.8108-385.4355s-265.2457-142.4909-385.4354-49.8107
		C591.2813,667.9171,568.9804,840.4824,661.6607,960.6724z M718.7261,591.2156c111.6509-88.6666,274.0405-70.0342,362.7069,41.6168
		c88.6669,111.6509,70.0344,274.0405-41.6167,362.7071c-111.6508,88.6665-274.0403,70.0341-362.7068-41.6168
		C588.4426,842.2717,607.075,679.8823,718.7261,591.2156z"/>
	<path fill="#0000FF" d="M677.1094,953.9226c88.6665,111.6509,251.056,130.2833,362.7068,41.6168
		c111.6511-88.6666,130.2836-251.0562,41.6167-362.7071c-88.6664-111.6509-251.056-130.2834-362.7069-41.6168
		C607.075,679.8823,588.4426,842.2717,677.1094,953.9226z M726.4005,606.9384c103.2527-84.4293,255.3987-69.1699,339.8279,34.0826
		c84.4292,103.2526,69.1699,255.3988-34.0828,339.8279c-103.2526,84.4292-255.3986,69.1699-339.8279-34.0827
		C607.8886,843.5137,623.148,691.3676,726.4005,606.9384z"/>
	<path fill="#006837" d="M692.3177,946.7663c84.4294,103.2526,236.5754,118.5119,339.8279,34.0827
		c103.2527-84.4291,118.512-236.5753,34.0828-339.8279c-84.4292-103.2525-236.5752-118.5119-339.8279-34.0826
		C623.148,691.3676,607.8886,843.5137,692.3177,946.7663z M734.4887,622.3965c94.9995-79.9711,236.8412-67.7884,316.8124,27.2111
		s67.7885,236.8412-27.2112,316.8124c-94.9993,79.9713-236.8411,67.7885-316.8123-27.211S639.4892,702.3677,734.4887,622.3965z"/>
	<path fill="#009245" d="M707.2776,939.2089c79.9712,94.9995,221.813,107.1823,316.8123,27.211
		c94.9996-79.9712,107.1824-221.8129,27.2112-316.8124s-221.813-107.1822-316.8124-27.2111S627.3065,844.2094,707.2776,939.2089z
		 M742.9847,637.5813c86.8961-75.2959,218.3787-65.8921,293.6746,21.004c75.296,86.8962,65.8921,218.3788-21.004,293.6747
		s-218.3787,65.8921-293.6746-21.004S656.0886,712.8773,742.9847,637.5813z"/>
	<path fill="#009245" d="M721.9807,931.256c75.296,86.8961,206.7785,96.3,293.6746,21.004s96.3-206.7785,21.004-293.6747
		c-75.296-86.8961-206.7785-96.2999-293.6746-21.004C656.0886,712.8773,646.6846,844.3599,721.9807,931.256z M751.8822,652.4844
		c78.947-70.4067,200.0223-63.4834,270.4291,15.4637c70.4067,78.9471,63.4833,200.0223-15.4637,270.4291
		c-78.9473,70.4067-200.0224,63.4834-270.4291-15.4637S672.9351,722.8912,751.8822,652.4844z"/>
	<path fill="#C1272D" d="M736.4185,922.9136c70.4067,78.9471,191.4818,85.8704,270.4291,15.4637
		c78.947-70.4067,85.8704-191.482,15.4637-270.4291c-70.4069-78.9471-191.4822-85.8704-270.4291-15.4637
		C672.9351,722.8912,666.0118,843.9664,736.4185,922.9136z M761.1749,667.0975c71.1569-65.3072,181.7828-60.5651,247.0899,10.5917
		c65.3071,71.1569,60.5651,181.7828-10.5919,247.09c-71.1567,65.3072-181.7827,60.5651-247.0897-10.5917
		C685.276,843.0306,690.0181,732.4047,761.1749,667.0975z"/>
	<path fill="#0000FF" d="M750.5833,914.1875c65.3071,71.1568,175.933,75.8989,247.0897,10.5917
		c71.157-65.3071,75.8989-175.933,10.5919-247.09c-65.3071-71.1568-175.933-75.8989-247.0899-10.5917
		S685.276,843.0306,750.5833,914.1875z M770.8564,681.4122c63.5295-60.0007,163.6709-57.1399,223.6716,6.3898
		s57.1398,163.6709-6.3898,223.6716s-163.671,57.1399-223.6717-6.3898C704.4658,841.5542,707.3267,741.413,770.8564,681.4122z"/>
	<path fill="#8C6239" d="M764.4665,905.0839c60.0007,63.5297,160.142,66.3906,223.6717,6.3898s66.3905-160.1419,6.3898-223.6716
		s-160.142-66.3905-223.6716-6.3898C707.3267,741.413,704.4658,841.5542,764.4665,905.0839z M780.9199,695.4207
		c56.0699-54.4911,145.6974-53.2111,200.1884,2.8589c54.491,56.07,53.2111,145.6974-2.8588,200.1885
		c-56.0701,54.4911-145.6976,53.2111-200.1885-2.8589C723.5699,839.5392,724.8499,749.9117,780.9199,695.4207z"/>
	<path fill="#C69C6D" d="M778.061,895.6091c54.491,56.07,144.1184,57.35,200.1885,2.8589
		c56.0698-54.491,57.3497-144.1185,2.8588-200.1885c-54.491-56.0699-144.1185-57.35-200.1884-2.8589
		C724.8499,749.9117,723.5699,839.5392,778.061,895.6091z M791.3586,709.1147c48.7819-48.7819,127.873-48.7819,176.6549,0
		c48.7818,48.7819,48.7818,127.873,0,176.6549c-48.7819,48.7819-127.873,48.7819-176.6549,0
		C742.5766,836.9877,742.5766,757.8967,791.3586,709.1147z"/>
	<circle fill="#F7931E" cx="879.686" cy="797.4422" r="124.9139"/>
</g>
</svg>
